<mxfile host="Electron" modified="2024-07-07T17:20:30.098Z" agent="Mozilla/5.0 (Windows NT 10.0; Win64; x64) AppleWebKit/537.36 (KHTML, like Gecko) draw.io/24.5.3 Chrome/124.0.6367.207 Electron/30.0.6 Safari/537.36" etag="V60iQwtEPloKDTZ5ySKE" version="24.5.3" type="device">
  <diagram name="Page-1" id="Hyj0w5Wk2uv5xPE97oOx">
    <mxGraphModel dx="1050" dy="621" grid="1" gridSize="10" guides="1" tooltips="1" connect="1" arrows="1" fold="1" page="1" pageScale="1" pageWidth="900" pageHeight="1600" math="0" shadow="0">
      <root>
        <mxCell id="0" />
        <mxCell id="1" parent="0" />
        <mxCell id="BVy9QaK5bn0Lo1n4w16S-20" style="edgeStyle=orthogonalEdgeStyle;rounded=0;orthogonalLoop=1;jettySize=auto;html=1;entryX=0.5;entryY=1;entryDx=0;entryDy=0;" parent="1" source="BVy9QaK5bn0Lo1n4w16S-2" target="BVy9QaK5bn0Lo1n4w16S-19" edge="1">
          <mxGeometry relative="1" as="geometry" />
        </mxCell>
        <mxCell id="BVy9QaK5bn0Lo1n4w16S-27" style="edgeStyle=orthogonalEdgeStyle;rounded=0;orthogonalLoop=1;jettySize=auto;html=1;entryX=0;entryY=1;entryDx=0;entryDy=0;exitX=0.5;exitY=0;exitDx=0;exitDy=0;" parent="1" source="BVy9QaK5bn0Lo1n4w16S-2" target="BVy9QaK5bn0Lo1n4w16S-15" edge="1">
          <mxGeometry relative="1" as="geometry">
            <Array as="points">
              <mxPoint x="385" y="400" />
              <mxPoint x="487" y="400" />
            </Array>
          </mxGeometry>
        </mxCell>
        <mxCell id="BVy9QaK5bn0Lo1n4w16S-2" value="" style="shape=trapezoid;perimeter=trapezoidPerimeter;whiteSpace=wrap;html=1;fixedSize=1;fillColor=#dae8fc;strokeColor=#6c8ebf;" parent="1" vertex="1">
          <mxGeometry x="290" y="420" width="190" height="60" as="geometry" />
        </mxCell>
        <mxCell id="BVy9QaK5bn0Lo1n4w16S-4" style="edgeStyle=orthogonalEdgeStyle;rounded=0;orthogonalLoop=1;jettySize=auto;html=1;entryX=0.75;entryY=1;entryDx=0;entryDy=0;" parent="1" source="BVy9QaK5bn0Lo1n4w16S-3" target="BVy9QaK5bn0Lo1n4w16S-2" edge="1">
          <mxGeometry relative="1" as="geometry" />
        </mxCell>
        <mxCell id="BVy9QaK5bn0Lo1n4w16S-3" value="two&#39;s complement" style="ellipse;whiteSpace=wrap;html=1;aspect=fixed;fillColor=#ffe6cc;strokeColor=#d79b00;" parent="1" vertex="1">
          <mxGeometry x="398" y="504" width="70" height="70" as="geometry" />
        </mxCell>
        <mxCell id="BVy9QaK5bn0Lo1n4w16S-7" style="edgeStyle=orthogonalEdgeStyle;rounded=0;orthogonalLoop=1;jettySize=auto;html=1;entryX=0.5;entryY=1;entryDx=0;entryDy=0;" parent="1" source="BVy9QaK5bn0Lo1n4w16S-6" target="BVy9QaK5bn0Lo1n4w16S-3" edge="1">
          <mxGeometry relative="1" as="geometry" />
        </mxCell>
        <mxCell id="BVy9QaK5bn0Lo1n4w16S-8" style="edgeStyle=orthogonalEdgeStyle;rounded=0;orthogonalLoop=1;jettySize=auto;html=1;entryX=0.25;entryY=1;entryDx=0;entryDy=0;" parent="1" source="BVy9QaK5bn0Lo1n4w16S-6" target="BVy9QaK5bn0Lo1n4w16S-2" edge="1">
          <mxGeometry relative="1" as="geometry">
            <Array as="points">
              <mxPoint x="433" y="600" />
              <mxPoint x="338" y="600" />
            </Array>
          </mxGeometry>
        </mxCell>
        <mxCell id="BVy9QaK5bn0Lo1n4w16S-6" value="integer" style="text;html=1;align=center;verticalAlign=middle;whiteSpace=wrap;rounded=0;" parent="1" vertex="1">
          <mxGeometry x="403" y="650" width="60" height="30" as="geometry" />
        </mxCell>
        <mxCell id="BVy9QaK5bn0Lo1n4w16S-9" value="" style="shape=or;whiteSpace=wrap;html=1;rotation=-180;fillColor=#f8cecc;strokeColor=#b85450;" parent="1" vertex="1">
          <mxGeometry x="550" y="430" width="30" height="40" as="geometry" />
        </mxCell>
        <mxCell id="BVy9QaK5bn0Lo1n4w16S-10" value="" style="endArrow=none;html=1;rounded=0;entryX=1;entryY=0.5;entryDx=0;entryDy=0;exitX=1;exitY=0.5;exitDx=0;exitDy=0;exitPerimeter=0;" parent="1" source="BVy9QaK5bn0Lo1n4w16S-9" target="BVy9QaK5bn0Lo1n4w16S-2" edge="1">
          <mxGeometry width="50" height="50" relative="1" as="geometry">
            <mxPoint x="500" y="560" as="sourcePoint" />
            <mxPoint x="550" y="510" as="targetPoint" />
          </mxGeometry>
        </mxCell>
        <mxCell id="BVy9QaK5bn0Lo1n4w16S-11" value="i MSB" style="text;html=1;align=center;verticalAlign=middle;whiteSpace=wrap;rounded=0;" parent="1" vertex="1">
          <mxGeometry x="620" y="410" width="40" height="30" as="geometry" />
        </mxCell>
        <mxCell id="BVy9QaK5bn0Lo1n4w16S-12" value="!is_unsigned" style="text;html=1;align=center;verticalAlign=middle;whiteSpace=wrap;rounded=0;" parent="1" vertex="1">
          <mxGeometry x="620" y="460" width="75" height="30" as="geometry" />
        </mxCell>
        <mxCell id="BVy9QaK5bn0Lo1n4w16S-13" style="edgeStyle=orthogonalEdgeStyle;rounded=0;orthogonalLoop=1;jettySize=auto;html=1;entryX=0;entryY=0.75;entryDx=0;entryDy=0;entryPerimeter=0;" parent="1" source="BVy9QaK5bn0Lo1n4w16S-11" target="BVy9QaK5bn0Lo1n4w16S-9" edge="1">
          <mxGeometry relative="1" as="geometry" />
        </mxCell>
        <mxCell id="BVy9QaK5bn0Lo1n4w16S-14" style="edgeStyle=orthogonalEdgeStyle;rounded=0;orthogonalLoop=1;jettySize=auto;html=1;entryX=0;entryY=0.25;entryDx=0;entryDy=0;entryPerimeter=0;" parent="1" source="BVy9QaK5bn0Lo1n4w16S-12" target="BVy9QaK5bn0Lo1n4w16S-9" edge="1">
          <mxGeometry relative="1" as="geometry" />
        </mxCell>
        <mxCell id="BVy9QaK5bn0Lo1n4w16S-31" style="edgeStyle=orthogonalEdgeStyle;rounded=0;orthogonalLoop=1;jettySize=auto;html=1;entryX=1;entryY=0.5;entryDx=0;entryDy=0;exitX=0.5;exitY=0;exitDx=0;exitDy=0;" parent="1" source="BVy9QaK5bn0Lo1n4w16S-15" target="BVy9QaK5bn0Lo1n4w16S-29" edge="1">
          <mxGeometry relative="1" as="geometry">
            <Array as="points">
              <mxPoint x="505" y="150" />
            </Array>
          </mxGeometry>
        </mxCell>
        <mxCell id="BVy9QaK5bn0Lo1n4w16S-15" value="&amp;lt;&amp;lt;" style="ellipse;whiteSpace=wrap;html=1;aspect=fixed;fillColor=#d5e8d4;strokeColor=#82b366;" parent="1" vertex="1">
          <mxGeometry x="480" y="220" width="50" height="50" as="geometry" />
        </mxCell>
        <mxCell id="BVy9QaK5bn0Lo1n4w16S-24" style="edgeStyle=orthogonalEdgeStyle;rounded=0;orthogonalLoop=1;jettySize=auto;html=1;entryX=1;entryY=1;entryDx=0;entryDy=0;" parent="1" source="BVy9QaK5bn0Lo1n4w16S-19" target="BVy9QaK5bn0Lo1n4w16S-23" edge="1">
          <mxGeometry relative="1" as="geometry">
            <Array as="points">
              <mxPoint x="385" y="300" />
              <mxPoint x="318" y="300" />
              <mxPoint x="318" y="273" />
            </Array>
          </mxGeometry>
        </mxCell>
        <mxCell id="BVy9QaK5bn0Lo1n4w16S-28" style="edgeStyle=orthogonalEdgeStyle;rounded=0;orthogonalLoop=1;jettySize=auto;html=1;entryX=1;entryY=1;entryDx=0;entryDy=0;" parent="1" source="BVy9QaK5bn0Lo1n4w16S-19" target="BVy9QaK5bn0Lo1n4w16S-15" edge="1">
          <mxGeometry relative="1" as="geometry">
            <Array as="points">
              <mxPoint x="385" y="300" />
              <mxPoint x="523" y="300" />
            </Array>
          </mxGeometry>
        </mxCell>
        <mxCell id="BVy9QaK5bn0Lo1n4w16S-19" value="Priority Encoder" style="rounded=0;whiteSpace=wrap;html=1;fillColor=#e1d5e7;strokeColor=#9673a6;" parent="1" vertex="1">
          <mxGeometry x="325" y="320" width="120" height="60" as="geometry" />
        </mxCell>
        <mxCell id="BVy9QaK5bn0Lo1n4w16S-32" style="edgeStyle=orthogonalEdgeStyle;rounded=0;orthogonalLoop=1;jettySize=auto;html=1;entryX=0.5;entryY=1;entryDx=0;entryDy=0;" parent="1" source="BVy9QaK5bn0Lo1n4w16S-23" target="BVy9QaK5bn0Lo1n4w16S-29" edge="1">
          <mxGeometry relative="1" as="geometry">
            <Array as="points">
              <mxPoint x="300" y="210" />
              <mxPoint x="385" y="210" />
            </Array>
          </mxGeometry>
        </mxCell>
        <mxCell id="BVy9QaK5bn0Lo1n4w16S-23" value="-" style="ellipse;whiteSpace=wrap;html=1;aspect=fixed;fillColor=#d5e8d4;strokeColor=#82b366;" parent="1" vertex="1">
          <mxGeometry x="275" y="220" width="50" height="50" as="geometry" />
        </mxCell>
        <mxCell id="BVy9QaK5bn0Lo1n4w16S-26" style="edgeStyle=orthogonalEdgeStyle;rounded=0;orthogonalLoop=1;jettySize=auto;html=1;exitX=1;exitY=0.5;exitDx=0;exitDy=0;entryX=0;entryY=1;entryDx=0;entryDy=0;" parent="1" source="BVy9QaK5bn0Lo1n4w16S-25" target="BVy9QaK5bn0Lo1n4w16S-23" edge="1">
          <mxGeometry relative="1" as="geometry">
            <Array as="points">
              <mxPoint x="282" y="300" />
              <mxPoint x="282" y="270" />
            </Array>
          </mxGeometry>
        </mxCell>
        <mxCell id="BVy9QaK5bn0Lo1n4w16S-25" value="158" style="text;html=1;align=center;verticalAlign=middle;whiteSpace=wrap;rounded=0;" parent="1" vertex="1">
          <mxGeometry x="230" y="290" width="37" height="20" as="geometry" />
        </mxCell>
        <mxCell id="BVy9QaK5bn0Lo1n4w16S-39" style="edgeStyle=orthogonalEdgeStyle;rounded=0;orthogonalLoop=1;jettySize=auto;html=1;" parent="1" source="BVy9QaK5bn0Lo1n4w16S-29" target="BVy9QaK5bn0Lo1n4w16S-40" edge="1">
          <mxGeometry relative="1" as="geometry">
            <mxPoint x="385" y="80" as="targetPoint" />
          </mxGeometry>
        </mxCell>
        <mxCell id="BVy9QaK5bn0Lo1n4w16S-29" value="concatenate" style="ellipse;whiteSpace=wrap;html=1;fillColor=#ffe6cc;strokeColor=#d79b00;" parent="1" vertex="1">
          <mxGeometry x="325" y="110" width="120" height="80" as="geometry" />
        </mxCell>
        <mxCell id="BVy9QaK5bn0Lo1n4w16S-33" value="" style="endArrow=classic;html=1;rounded=0;entryX=0;entryY=0.5;entryDx=0;entryDy=0;exitX=1;exitY=0.5;exitDx=0;exitDy=0;exitPerimeter=0;" parent="1" source="BVy9QaK5bn0Lo1n4w16S-34" target="BVy9QaK5bn0Lo1n4w16S-29" edge="1">
          <mxGeometry width="50" height="50" relative="1" as="geometry">
            <mxPoint x="190" y="200" as="sourcePoint" />
            <mxPoint x="240" y="180" as="targetPoint" />
            <Array as="points">
              <mxPoint x="190" y="150" />
            </Array>
          </mxGeometry>
        </mxCell>
        <mxCell id="BVy9QaK5bn0Lo1n4w16S-34" value="" style="shape=or;whiteSpace=wrap;html=1;rotation=-90;fillColor=#f8cecc;strokeColor=#b85450;" parent="1" vertex="1">
          <mxGeometry x="175" y="160" width="30" height="50" as="geometry" />
        </mxCell>
        <mxCell id="BVy9QaK5bn0Lo1n4w16S-35" value="i sign" style="text;html=1;align=center;verticalAlign=middle;whiteSpace=wrap;rounded=0;" parent="1" vertex="1">
          <mxGeometry x="213" y="220" width="40" height="20" as="geometry" />
        </mxCell>
        <mxCell id="BVy9QaK5bn0Lo1n4w16S-36" style="edgeStyle=orthogonalEdgeStyle;rounded=0;orthogonalLoop=1;jettySize=auto;html=1;entryX=0;entryY=0.75;entryDx=0;entryDy=0;entryPerimeter=0;exitX=0;exitY=0.5;exitDx=0;exitDy=0;" parent="1" source="BVy9QaK5bn0Lo1n4w16S-35" target="BVy9QaK5bn0Lo1n4w16S-34" edge="1">
          <mxGeometry relative="1" as="geometry" />
        </mxCell>
        <mxCell id="BVy9QaK5bn0Lo1n4w16S-37" value="!is unsigned" style="text;html=1;align=center;verticalAlign=middle;whiteSpace=wrap;rounded=0;" parent="1" vertex="1">
          <mxGeometry x="80" y="220" width="80" height="20" as="geometry" />
        </mxCell>
        <mxCell id="BVy9QaK5bn0Lo1n4w16S-38" style="edgeStyle=orthogonalEdgeStyle;rounded=0;orthogonalLoop=1;jettySize=auto;html=1;entryX=0;entryY=0.25;entryDx=0;entryDy=0;entryPerimeter=0;" parent="1" source="BVy9QaK5bn0Lo1n4w16S-37" target="BVy9QaK5bn0Lo1n4w16S-34" edge="1">
          <mxGeometry relative="1" as="geometry">
            <Array as="points">
              <mxPoint x="178" y="230" />
              <mxPoint x="178" y="200" />
            </Array>
          </mxGeometry>
        </mxCell>
        <mxCell id="BVy9QaK5bn0Lo1n4w16S-40" value="f" style="text;html=1;align=center;verticalAlign=middle;whiteSpace=wrap;rounded=0;" parent="1" vertex="1">
          <mxGeometry x="368" y="50" width="35" height="30" as="geometry" />
        </mxCell>
        <mxCell id="BVy9QaK5bn0Lo1n4w16S-41" value="1" style="text;html=1;align=center;verticalAlign=middle;whiteSpace=wrap;rounded=0;" parent="1" vertex="1">
          <mxGeometry x="418" y="440" width="30" height="20" as="geometry" />
        </mxCell>
        <mxCell id="BVy9QaK5bn0Lo1n4w16S-42" value="0" style="text;html=1;align=center;verticalAlign=middle;whiteSpace=wrap;rounded=0;" parent="1" vertex="1">
          <mxGeometry x="325" y="440" width="30" height="20" as="geometry" />
        </mxCell>
      </root>
    </mxGraphModel>
  </diagram>
</mxfile>
